# xmcd
#
# Track frame offsets: 
#        150
#        27026
#        54732
#        92734
#        114030
#        143755
#        172092
#        202025
#        232864
#        272720
#        309914
#
# Disc length: 4587 seconds
#
# Revision: 2
# Processed by: cddbd v1.5.2PL0 Copyright (c) Steve Scherf et al.
# Submitted via: ExactAudioCopy v1.1
#
DISCID=8b11e90b
DTITLE=Various Artist - Fierce Disco III Disc 2
DYEAR=2009
DGENRE=House
TTITLE0=Davide Loi - Dirty Road (Original Extended Mix)
TTITLE1=Electric Allstars feat. Mia J. - Weekend Love (Original Club M
TTITLE1=ix)
TTITLE2=Outsiders feat. Amanda Wilson - Keep This Fire Burning (Freema
TTITLE2=sons Remix)
TTITLE3=Cahill feat. Nikki Belle - Sex Shooter (Extended Mix)
TTITLE4=Wi-Fi feat. Siobahn - Just Be Good To Me (Club Vox Mix)
TTITLE5=White Knights feat. Belle Erskine - Replay (Club Mix)
TTITLE6=Elek-Tro Junkies feat. Becki - Goodbye (12'' Mix)
TTITLE7=Nicola Fasano vs Pat Rich - 76, Ocean Drive (Apache Vocal Mix)
TTITLE8=Soul Avengerz feat. Angie Brown - Someday (Soul Avengerz Main 
TTITLE8=Mix)
TTITLE9=Jean Claude Ades - I Begin to Wonder 2008 (Main Club Mix)
TTITLE10=Joshua Grey vs Bernie-X and Terri B! - Naked in the Rain 2009 (
TTITLE10=Original Vocal 12'')
EXTD=
EXTT0=
EXTT1=
EXTT2=
EXTT3=
EXTT4=
EXTT5=
EXTT6=
EXTT7=
EXTT8=
EXTT9=
EXTT10=
PLAYORDER=
